<?xml version="1.0" standalone="no"?>
<svg version="1.0" xmlns="http://www.w3.org/2000/svg"
     width="192.000000pt" height="192.000000pt" viewBox="0 0 192.000000 192.000000"
     preserveAspectRatio="xMidYMid meet">

    <g transform="translate(0.000000,192.000000) scale(0.100000,-0.100000)"
       fill="#000000" stroke="none">
        <path d="M696 1690 l-72 -70 -162 47 -163 46 -30 -29 -29 -28 105 -106 105
-106 -38 -37 -38 -37 -78 26 -77 26 -30 -28 -30 -28 163 -163 163 -163 29 29
29 29 -27 78 -26 78 37 38 37 38 106 -105 106 -105 28 29 29 30 -46 163 -47
162 70 72 c80 82 89 113 44 158 -45 45 -76 36 -158 -44z"/>
        <path d="M1065 1715 c-30 -29 -33 -74 -7 -103 9 -12 40 -27 68 -35 27 -8 73
-25 102 -37 l52 -22 0 -175 c0 -171 0 -174 25 -198 15 -16 36 -25 55 -25 41 0
80 -39 80 -80 0 -19 -9 -40 -25 -55 -23 -24 -28 -25 -175 -25 -148 0 -151 0
-176 -25 -25 -25 -26 -28 -22 -149 3 -117 4 -124 32 -160 31 -42 78 -66 126
-66 51 0 80 -38 80 -104 l0 -54 -73 -30 c-119 -50 -247 -65 -357 -41 l-50 11
0 44 c0 95 -55 158 -151 173 -73 12 -89 33 -89 123 0 60 -3 72 -25 93 -22 23
-32 25 -109 25 l-84 0 -11 50 c-6 28 -11 71 -11 96 0 85 -80 125 -137 68 -25
-25 -26 -29 -20 -107 15 -200 95 -375 238 -516 265 -261 682 -305 991 -102
324 212 449 603 309 967 -79 204 -265 382 -474 455 -101 35 -131 36 -162 4z"/>
    </g>
</svg>
